<svg xmlns="http://www.w3.org/2000/svg" viewBox="0 0 880 560" font-size="17">

  <style>
    .bg   { fill: #ffffff; }
    .txt  { fill: #1f2937; font-family: 'Segoe UI', Helvetica, Arial, sans-serif; }
    .muted{ fill: #6b7280; font-family: 'Segoe UI', Helvetica, Arial, sans-serif; }
    .node { fill: #eff6ff; stroke: #3b82f6; stroke-width: 2.5; }
    .wcol { stroke: #2563eb; }   /* váhy - modrá */
    .wtxt { fill: #2563eb; font-family: 'Segoe UI', Helvetica, Arial, sans-serif; font-weight: 600; }
    .bcol { stroke: #d97706; }   /* bias - oranžová */
    .btxt { fill: #d97706; font-family: 'Segoe UI', Helvetica, Arial, sans-serif; font-weight: 600; }
    .acol { stroke: #059669; }   /* aktivácia - zelená */
    .atxt { fill: #059669; font-family: 'Segoe UI', Helvetica, Arial, sans-serif; font-weight: 600; }
    .edge { stroke: #93c5fd; stroke-width: 1.4; fill: none; opacity: 0.7; }
    @media (prefers-color-scheme: dark) {
      .bg   { fill: #0d1117; }
      .txt  { fill: #e6edf3; }
      .muted{ fill: #9ca3af; }
      .node { fill: #16233b; stroke: #60a5fa; }
      .wcol { stroke: #60a5fa; }
      .wtxt { fill: #93c5fd; }
      .bcol { stroke: #fbbf24; }
      .btxt { fill: #fbbf24; }
      .acol { stroke: #34d399; }
      .atxt { fill: #6ee7b7; }
      .edge { stroke: #2b4a6f; }
    }
  </style>


  <defs>
    <marker id="arw" markerWidth="9" markerHeight="9" refX="7" refY="3" orient="auto">
      <path d="M0,0 L7,3 L0,6 Z" fill="#6b7280"/>
    </marker>
    <marker id="arwB" markerWidth="9" markerHeight="9" refX="7" refY="3" orient="auto">
      <path d="M0,0 L7,3 L0,6 Z" fill="#d97706"/>
    </marker>
    <marker id="arwG" markerWidth="9" markerHeight="9" refX="7" refY="3" orient="auto">
      <path d="M0,0 L7,3 L0,6 Z" fill="#059669"/>
    </marker>
  </defs>

<rect class="bg" x="0" y="0" width="880" height="560" rx="10"/>
<line class="edge" x1="170" y1="170" x2="410" y2="110"/>
<line class="edge" x1="170" y1="170" x2="410" y2="210"/>
<line class="edge" x1="170" y1="170" x2="410" y2="310"/>
<line class="edge" x1="170" y1="170" x2="410" y2="410"/>
<line class="edge" x1="170" y1="280" x2="410" y2="110"/>
<line class="edge" x1="170" y1="280" x2="410" y2="210"/>
<line class="edge" x1="170" y1="280" x2="410" y2="310"/>
<line class="edge" x1="170" y1="280" x2="410" y2="410"/>
<line class="edge" x1="170" y1="390" x2="410" y2="110"/>
<line class="edge" x1="170" y1="390" x2="410" y2="210"/>
<line class="edge" x1="170" y1="390" x2="410" y2="310"/>
<line class="edge" x1="170" y1="390" x2="410" y2="410"/>
<line class="edge" x1="470" y1="110" x2="710" y2="220"/>
<line class="edge" x1="470" y1="110" x2="710" y2="340"/>
<line class="edge" x1="470" y1="210" x2="710" y2="220"/>
<line class="edge" x1="470" y1="210" x2="710" y2="340"/>
<line class="edge" x1="470" y1="310" x2="710" y2="220"/>
<line class="edge" x1="470" y1="310" x2="710" y2="340"/>
<line class="edge" x1="470" y1="410" x2="710" y2="220"/>
<line class="edge" x1="470" y1="410" x2="710" y2="340"/>
<line class="wcol" stroke-width="3" x1="170" y1="170" x2="410" y2="210"/>
<text class="wtxt" x="284.0" y="182.0" text-anchor="middle">w</text>
<circle class="node" cx="140" cy="170" r="30"/>
<text class="txt" x="140" y="176" text-anchor="middle">x<tspan font-size="12" dy="4">1</tspan></text>
<circle class="node" cx="140" cy="280" r="30"/>
<text class="txt" x="140" y="286" text-anchor="middle">x<tspan font-size="12" dy="4">2</tspan></text>
<circle class="node" cx="140" cy="390" r="30"/>
<text class="txt" x="140" y="396" text-anchor="middle">x<tspan font-size="12" dy="4">3</tspan></text>
<circle class="node" cx="440" cy="110" r="30"/>
<text class="atxt" x="440" y="117" text-anchor="middle" font-size="20">σ</text>
<circle class="node" cx="440" cy="210" r="30"/>
<text class="atxt" x="440" y="217" text-anchor="middle" font-size="20">σ</text>
<circle class="node" cx="440" cy="310" r="30"/>
<text class="atxt" x="440" y="317" text-anchor="middle" font-size="20">σ</text>
<circle class="node" cx="440" cy="410" r="30"/>
<text class="atxt" x="440" y="417" text-anchor="middle" font-size="20">σ</text>
<circle class="node" cx="740" cy="220" r="30"/>
<text class="atxt" x="740" y="227" text-anchor="middle" font-size="20">σ</text>
<circle class="node" cx="740" cy="340" r="30"/>
<text class="atxt" x="740" y="347" text-anchor="middle" font-size="20">σ</text>
<text class="muted" x="140" y="60" text-anchor="middle" font-size="16">Vstupná vrstva</text>
<text class="muted" x="440" y="60" text-anchor="middle" font-size="16">Skrytá vrstva</text>
<text class="muted" x="740" y="60" text-anchor="middle" font-size="16">Výstupná vrstva</text>
<text class="wtxt" x="290" y="500" text-anchor="middle">W<tspan font-size="12" dy="4">1</tspan><tspan dy="-4">, </tspan><tspan class="btxt">b<tspan font-size="12" dy="4">1</tspan></tspan></text>
<text class="wtxt" x="590" y="500" text-anchor="middle">W<tspan font-size="12" dy="4">2</tspan><tspan dy="-4">, </tspan><tspan class="btxt">b<tspan font-size="12" dy="4">2</tspan></tspan></text>
<circle cx="150" cy="530" r="7" class="node"/>
<line class="wcol" stroke-width="3" x1="300" y1="530" x2="330" y2="530"/>
<text class="wtxt" x="340" y="535">w = váhy</text>
<text class="btxt" x="470" y="535">b = bias</text>
<text class="atxt" x="580" y="535">σ = aktivačná funkcia</text>
<text class="muted" x="160" y="535">neurón</text>
</svg>